<?xml version="1.0" encoding="UTF-8" standalone="no"?>
<!-- Created with Inkscape (http://www.inkscape.org/) -->

<svg
   xmlns:dc="http://purl.org/dc/elements/1.1/"
   xmlns:cc="http://creativecommons.org/ns#"
   xmlns:rdf="http://www.w3.org/1999/02/22-rdf-syntax-ns#"
   xmlns:svg="http://www.w3.org/2000/svg"
   xmlns="http://www.w3.org/2000/svg"
   xmlns:sodipodi="http://sodipodi.sourceforge.net/DTD/sodipodi-0.dtd"
   xmlns:inkscape="http://www.inkscape.org/namespaces/inkscape"
   id="svg2"
   version="1.1"
   inkscape:version="0.91 r13725"
   xml:space="preserve"
   width="1750"
   height="1225"
   viewBox="0 0 1750 1225"
   sodipodi:docname="logo.svg"><metadata
     id="metadata8"><rdf:RDF><cc:Work
         rdf:about=""><dc:format>image/svg+xml</dc:format><dc:type
           rdf:resource="http://purl.org/dc/dcmitype/StillImage" /><dc:title /></cc:Work></rdf:RDF></metadata><defs
     id="defs6"><clipPath
       clipPathUnits="userSpaceOnUse"
       id="clipPath38"><path
         d="m 6205.52,5626.05 0,0 0,212.23 -1035.31,821.91 0,0 1035.31,-821.91 0,-212.23"
         id="path40"
         inkscape:connector-curvature="0" /></clipPath><linearGradient
       x1="0"
       y1="0"
       x2="1"
       y2="0"
       gradientUnits="userSpaceOnUse"
       gradientTransform="matrix(2907.73,-2399.75,-2399.75,-2907.73,3667.73,6545.72)"
       spreadMethod="pad"
       id="linearGradient42"><stop
         style="stop-opacity:1;stop-color:#f17f14"
         offset="0"
         id="stop44" /><stop
         style="stop-opacity:1;stop-color:#f1a510"
         offset="0.995349"
         id="stop46" /><stop
         style="stop-opacity:1;stop-color:#f1a510"
         offset="1"
         id="stop48" /></linearGradient><clipPath
       clipPathUnits="userSpaceOnUse"
       id="clipPath56"><path
         d="m 4114.85,4909.49 -1676.81,1264.1 1061.32,1362.94 1144.76,-876.81 526.09,0.47 1035.31,-821.91 0,-212.23 -1847.2,0 c -134.2,0 -243.47,-112.67 -243.47,-251.48 l 0,-465.08"
         id="path58"
         inkscape:connector-curvature="0" /></clipPath><clipPath
       clipPathUnits="userSpaceOnUse"
       id="clipPath68"><path
         d="m 78,794.063 0,0 L 7136.02,894.652 77.9961,794.051"
         id="path70"
         inkscape:connector-curvature="0" /></clipPath><linearGradient
       x1="0"
       y1="0"
       x2="1"
       y2="0"
       gradientUnits="userSpaceOnUse"
       gradientTransform="matrix(1725.66,-8710.46,-8710.46,-1725.66,7100.8,1330.74)"
       spreadMethod="pad"
       id="linearGradient72"><stop
         style="stop-opacity:1;stop-color:#f17f14"
         offset="0"
         id="stop74" /><stop
         style="stop-opacity:1;stop-color:#f1a510"
         offset="0.995349"
         id="stop76" /><stop
         style="stop-opacity:1;stop-color:#f1a510"
         offset="1"
         id="stop78" /></linearGradient><clipPath
       clipPathUnits="userSpaceOnUse"
       id="clipPath86"><path
         d="M 14000,0 1108.73,0 78,794.063 7136.02,894.652 14000,992.48 14000,0"
         id="path88"
         inkscape:connector-curvature="0" /></clipPath><clipPath
       clipPathUnits="userSpaceOnUse"
       id="clipPath98"><path
         d="m 14000,2358.08 -230.5,178.67 0,5.06 c 76.1,-58.62 152.9,-117.85 230.5,-177.6 l 0,-6.13 m -288.5,228.39 -6.2,0 -286.6,222.14 4.4,0 c 94.6,-72.85 190.8,-146.92 288.4,-222.14 m -458,352.87 -3.5,0 -575.7,446.14 c 182,-140.16 376.1,-289.7 579.2,-446.14"
         id="path100"
         inkscape:connector-curvature="0" /></clipPath><clipPath
       clipPathUnits="userSpaceOnUse"
       id="clipPath110"><path
         d="m 13423.1,2808.61 -4.4,0 -168.7,130.73 3.5,0 c 55.8,-43.05 112.5,-86.68 169.6,-130.73"
         id="path112"
         inkscape:connector-curvature="0" /></clipPath><clipPath
       clipPathUnits="userSpaceOnUse"
       id="clipPath122"><path
         d="m 13769.5,2536.75 -64.2,49.72 6.2,0 c 19.2,-14.83 38.6,-29.75 58,-44.66 l 0,-5.06"
         id="path124"
         inkscape:connector-curvature="0" /></clipPath><clipPath
       clipPathUnits="userSpaceOnUse"
       id="clipPath134"><path
         d="m 14000,2364.21 c -77.6,59.75 -154.4,118.98 -230.5,177.6 l 0,44.66 -58,0 c -97.6,75.22 -193.8,149.29 -288.4,222.14 l 346.4,0 0,130.73 -516,0 c -203.1,156.44 -397.2,305.98 -579.2,446.14 l -245.3,190.12 1571,0 0,-1211.39"
         id="path136"
         inkscape:connector-curvature="0" /></clipPath><clipPath
       clipPathUnits="userSpaceOnUse"
       id="clipPath146"><path
         d="m 13769.5,2808.61 -346.4,0 c -57.1,44.05 -113.8,87.68 -169.6,130.73 l 516,0 0,-130.73"
         id="path148"
         inkscape:connector-curvature="0" /></clipPath><clipPath
       clipPathUnits="userSpaceOnUse"
       id="clipPath158"><path
         d="m 13769.5,2541.81 c -19.4,14.91 -38.8,29.83 -58,44.66 l 58,0 0,-44.66"
         id="path160"
         inkscape:connector-curvature="0" /></clipPath><clipPath
       clipPathUnits="userSpaceOnUse"
       id="clipPath170"><path
         d="m 13598,7192.22 0,0 -15.9,719.5 0,0 15.9,-719.5 m -16.9,763.91 0,0.01 -2.6,118.31 0,-0.01 2.6,-118.31 m -203.2,278.94 -1613.5,1292.22 0,0 1613.5,-1292.22 m -8222.02,373.56 -1364.14,918.66 0.01,0 1364.14,-918.66 -0.01,0 m 466.77,48.91 L 10077.4,9124.3 11219,9397 10077.4,9124.3 5622.65,8657.54"
         id="path172"
         inkscape:connector-curvature="0" /></clipPath><linearGradient
       x1="0"
       y1="0"
       x2="1"
       y2="0"
       gradientUnits="userSpaceOnUse"
       gradientTransform="matrix(1097.72,-5708.24,-5708.24,-1097.72,7739.33,9300.54)"
       spreadMethod="pad"
       id="linearGradient174"><stop
         style="stop-opacity:1;stop-color:#f17f14"
         offset="0"
         id="stop176" /><stop
         style="stop-opacity:1;stop-color:#f1a510"
         offset="0.995349"
         id="stop178" /><stop
         style="stop-opacity:1;stop-color:#f1a510"
         offset="1"
         id="stop180" /></linearGradient><clipPath
       clipPathUnits="userSpaceOnUse"
       id="clipPath188"><path
         d="m 5170.21,6660.19 -941.1,747.12 -513.15,407.38 -216.6,-278.16 -1201.07,919.93 590.98,868.4 902.48,202.43 1364.13,-918.66 0.01,0 466.76,48.91 4454.75,466.76 1141.6,272.7 545.4,130.29 1613.5,-1292.22 200.6,-160.63 2.6,-118.3 -53.9,22.75 c 0.6,4.5 0.9,9.12 0.9,13.82 0,49.22 -32.5,89.14 -72.6,89.14 -40.1,0 -72.6,-39.92 -72.6,-89.14 0,-6.57 0.6,-12.97 1.7,-19.14 l -1973.1,-781.35 -575.3,0 0,-526.96 -870.34,-0.78 0,461.5 -2347.5,0 0,-463.6 -2448.15,-2.19 m 8427.79,532.03 -2076.7,0 1878.2,743.74 c 13.3,-19.78 33.5,-32.38 56,-32.38 24.1,0 45.5,14.49 58.7,36.78 l 67.9,-28.64 15.9,-719.5"
         id="path190"
         inkscape:connector-curvature="0" /></clipPath><clipPath
       clipPathUnits="userSpaceOnUse"
       id="clipPath194"><path
         d="m 2644.8,7726.4 1780.8,0 0,1809.6 -1780.8,0 0,-1809.6 z"
         id="path196"
         inkscape:connector-curvature="0" /></clipPath><clipPath
       clipPathUnits="userSpaceOnUse"
       id="clipPath206"><path
         d="m 5170.21,6660.19 -941.1,747.12 -513.15,407.38 -216.6,-278.16 -1201.07,919.93 590.98,868.4 902.48,202.43 1364.13,-918.66 0.01,0 466.76,48.91 4454.75,466.76 1141.6,272.7 545.4,130.29 1613.5,-1292.22 200.6,-160.63 2.6,-118.3 -53.9,22.75 c 0.6,4.5 0.9,9.12 0.9,13.82 0,49.22 -32.5,89.14 -72.6,89.14 -40.1,0 -72.6,-39.92 -72.6,-89.14 0,-6.57 0.6,-12.97 1.7,-19.14 l -1973.1,-781.35 -575.3,0 0,-526.96 -870.34,-0.78 0,461.5 -2347.5,0 0,-463.6 -2448.15,-2.19 m 8427.79,532.03 -2076.7,0 1878.2,743.74 c 13.3,-19.78 33.5,-32.38 56,-32.38 24.1,0 45.5,14.49 58.7,36.78 l 67.9,-28.64 15.9,-719.5"
         id="path208"
         inkscape:connector-curvature="0" /></clipPath><clipPath
       clipPathUnits="userSpaceOnUse"
       id="clipPath212"><path
         d="m 10060.8,7011.2 2486.4,0 0,2524.8 -2486.4,0 0,-2524.8 z"
         id="path214"
         inkscape:connector-curvature="0" /></clipPath><clipPath
       clipPathUnits="userSpaceOnUse"
       id="clipPath224"><path
         d="m 5170.21,6660.19 -941.1,747.12 -513.15,407.38 -216.6,-278.16 -1201.07,919.93 590.98,868.4 902.48,202.43 1364.13,-918.66 0.01,0 466.76,48.91 4454.75,466.76 1141.6,272.7 545.4,130.29 1613.5,-1292.22 200.6,-160.63 2.6,-118.3 -53.9,22.75 c 0.6,4.5 0.9,9.12 0.9,13.82 0,49.22 -32.5,89.14 -72.6,89.14 -40.1,0 -72.6,-39.92 -72.6,-89.14 0,-6.57 0.6,-12.97 1.7,-19.14 l -1973.1,-781.35 -575.3,0 0,-526.96 -870.34,-0.78 0,461.5 -2347.5,0 0,-463.6 -2448.15,-2.19 m 8427.79,532.03 -2076.7,0 1878.2,743.74 c 13.3,-19.78 33.5,-32.38 56,-32.38 24.1,0 45.5,14.49 58.7,36.78 l 67.9,-28.64 15.9,-719.5"
         id="path226"
         inkscape:connector-curvature="0" /></clipPath><clipPath
       clipPathUnits="userSpaceOnUse"
       id="clipPath230"><path
         d="m 2289.6,8086.4 369.598,0 0,1089.6 -369.598,0 0,-1089.6 z"
         id="path232"
         inkscape:connector-curvature="0" /></clipPath><clipPath
       clipPathUnits="userSpaceOnUse"
       id="clipPath242"><path
         d="m 5170.21,6660.19 -941.1,747.12 -513.15,407.38 -216.6,-278.16 -1201.07,919.93 590.98,868.4 902.48,202.43 1364.13,-918.66 0.01,0 466.76,48.91 4454.75,466.76 1141.6,272.7 545.4,130.29 1613.5,-1292.22 200.6,-160.63 2.6,-118.3 -53.9,22.75 c 0.6,4.5 0.9,9.12 0.9,13.82 0,49.22 -32.5,89.14 -72.6,89.14 -40.1,0 -72.6,-39.92 -72.6,-89.14 0,-6.57 0.6,-12.97 1.7,-19.14 l -1973.1,-781.35 -575.3,0 0,-526.96 -870.34,-0.78 0,461.5 -2347.5,0 0,-463.6 -2448.15,-2.19 m 8427.79,532.03 -2076.7,0 1878.2,743.74 c 13.3,-19.78 33.5,-32.38 56,-32.38 24.1,0 45.5,14.49 58.7,36.78 l 67.9,-28.64 15.9,-719.5"
         id="path244"
         inkscape:connector-curvature="0" /></clipPath><clipPath
       clipPathUnits="userSpaceOnUse"
       id="clipPath248"><path
         d="m 4411.2,6651.2 720,0 0,2524.8 -720,0 0,-2524.8 z"
         id="path250"
         inkscape:connector-curvature="0" /></clipPath><clipPath
       clipPathUnits="userSpaceOnUse"
       id="clipPath260"><path
         d="m 5170.21,6660.19 -941.1,747.12 -513.15,407.38 -216.6,-278.16 -1201.07,919.93 590.98,868.4 902.48,202.43 1364.13,-918.66 0.01,0 466.76,48.91 4454.75,466.76 1141.6,272.7 545.4,130.29 1613.5,-1292.22 200.6,-160.63 2.6,-118.3 -53.9,22.75 c 0.6,4.5 0.9,9.12 0.9,13.82 0,49.22 -32.5,89.14 -72.6,89.14 -40.1,0 -72.6,-39.92 -72.6,-89.14 0,-6.57 0.6,-12.97 1.7,-19.14 l -1973.1,-781.35 -575.3,0 0,-526.96 -870.34,-0.78 0,461.5 -2347.5,0 0,-463.6 -2448.15,-2.19 m 8427.79,532.03 -2076.7,0 1878.2,743.74 c 13.3,-19.78 33.5,-32.38 56,-32.38 24.1,0 45.5,14.49 58.7,36.78 l 67.9,-28.64 15.9,-719.5"
         id="path262"
         inkscape:connector-curvature="0" /></clipPath><clipPath
       clipPathUnits="userSpaceOnUse"
       id="clipPath266"><path
         d="m 6883.2,7011.2 3192,0 0,2164.8 -3192,0 0,-2164.8 z"
         id="path268"
         inkscape:connector-curvature="0" /></clipPath><clipPath
       clipPathUnits="userSpaceOnUse"
       id="clipPath278"><path
         d="m 5170.21,6660.19 -941.1,747.12 -513.15,407.38 -216.6,-278.16 -1201.07,919.93 590.98,868.4 902.48,202.43 1364.13,-918.66 0.01,0 466.76,48.91 4454.75,466.76 1141.6,272.7 545.4,130.29 1613.5,-1292.22 200.6,-160.63 2.6,-118.3 -53.9,22.75 c 0.6,4.5 0.9,9.12 0.9,13.82 0,49.22 -32.5,89.14 -72.6,89.14 -40.1,0 -72.6,-39.92 -72.6,-89.14 0,-6.57 0.6,-12.97 1.7,-19.14 l -1973.1,-781.35 -575.3,0 0,-526.96 -870.34,-0.78 0,461.5 -2347.5,0 0,-463.6 -2448.15,-2.19 m 8427.79,532.03 -2076.7,0 1878.2,743.74 c 13.3,-19.78 33.5,-32.38 56,-32.38 24.1,0 45.5,14.49 58.7,36.78 l 67.9,-28.64 15.9,-719.5"
         id="path280"
         inkscape:connector-curvature="0" /></clipPath><clipPath
       clipPathUnits="userSpaceOnUse"
       id="clipPath284"><path
         d="m 12532.8,7011.2 364.801,0 0,2164.8 -364.801,0 0,-2164.8 z"
         id="path286"
         inkscape:connector-curvature="0" /></clipPath><clipPath
       clipPathUnits="userSpaceOnUse"
       id="clipPath296"><path
         d="m 5170.21,6660.19 -941.1,747.12 -513.15,407.38 -216.6,-278.16 -1201.07,919.93 590.98,868.4 902.48,202.43 1364.13,-918.66 0.01,0 466.76,48.91 4454.75,466.76 1141.6,272.7 545.4,130.29 1613.5,-1292.22 200.6,-160.63 2.6,-118.3 -53.9,22.75 c 0.6,4.5 0.9,9.12 0.9,13.82 0,49.22 -32.5,89.14 -72.6,89.14 -40.1,0 -72.6,-39.92 -72.6,-89.14 0,-6.57 0.6,-12.97 1.7,-19.14 l -1973.1,-781.35 -575.3,0 0,-526.96 -870.34,-0.78 0,461.5 -2347.5,0 0,-463.6 -2448.15,-2.19 m 8427.79,532.03 -2076.7,0 1878.2,743.74 c 13.3,-19.78 33.5,-32.38 56,-32.38 24.1,0 45.5,14.49 58.7,36.78 l 67.9,-28.64 15.9,-719.5"
         id="path298"
         inkscape:connector-curvature="0" /></clipPath><clipPath
       clipPathUnits="userSpaceOnUse"
       id="clipPath302"><path
         d="m 5116.8,6651.2 1780.8,0 0,2164.8 -1780.8,0 0,-2164.8 z"
         id="path304"
         inkscape:connector-curvature="0" /></clipPath><clipPath
       clipPathUnits="userSpaceOnUse"
       id="clipPath314"><path
         d="m 5170.21,6660.19 -941.1,747.12 -513.15,407.38 -216.6,-278.16 -1201.07,919.93 590.98,868.4 902.48,202.43 1364.13,-918.66 0.01,0 466.76,48.91 4454.75,466.76 1141.6,272.7 545.4,130.29 1613.5,-1292.22 200.6,-160.63 2.6,-118.3 -53.9,22.75 c 0.6,4.5 0.9,9.12 0.9,13.82 0,49.22 -32.5,89.14 -72.6,89.14 -40.1,0 -72.6,-39.92 -72.6,-89.14 0,-6.57 0.6,-12.97 1.7,-19.14 l -1973.1,-781.35 -575.3,0 0,-526.96 -870.34,-0.78 0,461.5 -2347.5,0 0,-463.6 -2448.15,-2.19 m 8427.79,532.03 -2076.7,0 1878.2,743.74 c 13.3,-19.78 33.5,-32.38 56,-32.38 24.1,0 45.5,14.49 58.7,36.78 l 67.9,-28.64 15.9,-719.5"
         id="path316"
         inkscape:connector-curvature="0" /></clipPath><clipPath
       clipPathUnits="userSpaceOnUse"
       id="clipPath320"><path
         d="m 12883.2,7011.2 369.602,0 0,1804.8 -369.602,0 0,-1804.8 z"
         id="path322"
         inkscape:connector-curvature="0" /></clipPath><clipPath
       clipPathUnits="userSpaceOnUse"
       id="clipPath332"><path
         d="m 5170.21,6660.19 -941.1,747.12 -513.15,407.38 -216.6,-278.16 -1201.07,919.93 590.98,868.4 902.48,202.43 1364.13,-918.66 0.01,0 466.76,48.91 4454.75,466.76 1141.6,272.7 545.4,130.29 1613.5,-1292.22 200.6,-160.63 2.6,-118.3 -53.9,22.75 c 0.6,4.5 0.9,9.12 0.9,13.82 0,49.22 -32.5,89.14 -72.6,89.14 -40.1,0 -72.6,-39.92 -72.6,-89.14 0,-6.57 0.6,-12.97 1.7,-19.14 l -1973.1,-781.35 -575.3,0 0,-526.96 -870.34,-0.78 0,461.5 -2347.5,0 0,-463.6 -2448.15,-2.19 m 8427.79,532.03 -2076.7,0 1878.2,743.74 c 13.3,-19.78 33.5,-32.38 56,-32.38 24.1,0 45.5,14.49 58.7,36.78 l 67.9,-28.64 15.9,-719.5"
         id="path334"
         inkscape:connector-curvature="0" /></clipPath><clipPath
       clipPathUnits="userSpaceOnUse"
       id="clipPath338"><path
         d="m 13238.4,7011.2 364.801,0 0,1449.6 -364.801,0 0,-1449.6 z"
         id="path340"
         inkscape:connector-curvature="0" /></clipPath><clipPath
       clipPathUnits="userSpaceOnUse"
       id="clipPath350"><path
         d="m 5170.21,6660.19 -941.1,747.12 -513.15,407.38 -216.6,-278.16 -1201.07,919.93 590.98,868.4 902.48,202.43 1364.13,-918.66 0.01,0 466.76,48.91 4454.75,466.76 1141.6,272.7 545.4,130.29 1613.5,-1292.22 200.6,-160.63 2.6,-118.3 -53.9,22.75 c 0.6,4.5 0.9,9.12 0.9,13.82 0,49.22 -32.5,89.14 -72.6,89.14 -40.1,0 -72.6,-39.92 -72.6,-89.14 0,-6.57 0.6,-12.97 1.7,-19.14 l -1973.1,-781.35 -575.3,0 0,-526.96 -870.34,-0.78 0,461.5 -2347.5,0 0,-463.6 -2448.15,-2.19 m 8427.79,532.03 -2076.7,0 1878.2,743.74 c 13.3,-19.78 33.5,-32.38 56,-32.38 24.1,0 45.5,14.49 58.7,36.78 l 67.9,-28.64 15.9,-719.5"
         id="path352"
         inkscape:connector-curvature="0" /></clipPath><clipPath
       clipPathUnits="userSpaceOnUse"
       id="clipPath356"><path
         d="m 2995.2,7371.2 1430.4,0 0,369.602 -1430.4,0 0,-369.602 z"
         id="path358"
         inkscape:connector-curvature="0" /></clipPath><clipPath
       clipPathUnits="userSpaceOnUse"
       id="clipPath368"><path
         d="m 5170.21,6660.19 -941.1,747.12 -513.15,407.38 -216.6,-278.16 -1201.07,919.93 590.98,868.4 902.48,202.43 1364.13,-918.66 0.01,0 466.76,48.91 4454.75,466.76 1141.6,272.7 545.4,130.29 1613.5,-1292.22 200.6,-160.63 2.6,-118.3 -53.9,22.75 c 0.6,4.5 0.9,9.12 0.9,13.82 0,49.22 -32.5,89.14 -72.6,89.14 -40.1,0 -72.6,-39.92 -72.6,-89.14 0,-6.57 0.6,-12.97 1.7,-19.14 l -1973.1,-781.35 -575.3,0 0,-526.96 -870.34,-0.78 0,461.5 -2347.5,0 0,-463.6 -2448.15,-2.19 m 8427.79,532.03 -2076.7,0 1878.2,743.74 c 13.3,-19.78 33.5,-32.38 56,-32.38 24.1,0 45.5,14.49 58.7,36.78 l 67.9,-28.64 15.9,-719.5"
         id="path370"
         inkscape:connector-curvature="0" /></clipPath><clipPath
       clipPathUnits="userSpaceOnUse"
       id="clipPath374"><path
         d="m 4056,7011.2 369.602,0 0,374.402 -369.602,0 0,-374.402 z"
         id="path376"
         inkscape:connector-curvature="0" /></clipPath><clipPath
       clipPathUnits="userSpaceOnUse"
       id="clipPath386"><path
         d="m 5170.21,6660.19 -941.1,747.12 -513.15,407.38 -216.6,-278.16 -1201.07,919.93 590.98,868.4 902.48,202.43 1364.13,-918.66 0.01,0 466.76,48.91 4454.75,466.76 1141.6,272.7 545.4,130.29 1613.5,-1292.22 200.6,-160.63 2.6,-118.3 -53.9,22.75 c 0.6,4.5 0.9,9.12 0.9,13.82 0,49.22 -32.5,89.14 -72.6,89.14 -40.1,0 -72.6,-39.92 -72.6,-89.14 0,-6.57 0.6,-12.97 1.7,-19.14 l -1973.1,-781.35 -575.3,0 0,-526.96 -870.34,-0.78 0,461.5 -2347.5,0 0,-463.6 -2448.15,-2.19 m 8427.79,532.03 -2076.7,0 1878.2,743.74 c 13.3,-19.78 33.5,-32.38 56,-32.38 24.1,0 45.5,14.49 58.7,36.78 l 67.9,-28.64 15.9,-719.5"
         id="path388"
         inkscape:connector-curvature="0" /></clipPath><clipPath
       clipPathUnits="userSpaceOnUse"
       id="clipPath392"><path
         d="m 6883.2,6651.2 1070.4,0 0,374.402 -1070.4,0 0,-374.402 z"
         id="path394"
         inkscape:connector-curvature="0" /></clipPath><clipPath
       clipPathUnits="userSpaceOnUse"
       id="clipPath404"><path
         d="m 5170.21,6660.19 -941.1,747.12 -513.15,407.38 -216.6,-278.16 -1201.07,919.93 590.98,868.4 902.48,202.43 1364.13,-918.66 0.01,0 466.76,48.91 4454.75,466.76 1141.6,272.7 545.4,130.29 1613.5,-1292.22 200.6,-160.63 2.6,-118.3 -53.9,22.75 c 0.6,4.5 0.9,9.12 0.9,13.82 0,49.22 -32.5,89.14 -72.6,89.14 -40.1,0 -72.6,-39.92 -72.6,-89.14 0,-6.57 0.6,-12.97 1.7,-19.14 l -1973.1,-781.35 -575.3,0 0,-526.96 -870.34,-0.78 0,461.5 -2347.5,0 0,-463.6 -2448.15,-2.19 m 8427.79,532.03 -2076.7,0 1878.2,743.74 c 13.3,-19.78 33.5,-32.38 56,-32.38 24.1,0 45.5,14.49 58.7,36.78 l 67.9,-28.64 15.9,-719.5"
         id="path406"
         inkscape:connector-curvature="0" /></clipPath><clipPath
       clipPathUnits="userSpaceOnUse"
       id="clipPath410"><path
         d="m 9705.6,6651.2 1425.6,0 0,374.402 -1425.6,0 0,-374.402 z"
         id="path412"
         inkscape:connector-curvature="0" /></clipPath><clipPath
       clipPathUnits="userSpaceOnUse"
       id="clipPath422"><path
         d="m 5170.21,6660.19 -941.1,747.12 941.1,-747.12 0,0"
         id="path424"
         inkscape:connector-curvature="0" /></clipPath><clipPath
       clipPathUnits="userSpaceOnUse"
       id="clipPath434"><path
         d="m 4644.12,6659.72 -1144.76,876.81 216.6,278.16 513.15,-407.38 941.1,-747.12 -526.1,-0.47"
         id="path436"
         inkscape:connector-curvature="0" /></clipPath><clipPath
       clipPathUnits="userSpaceOnUse"
       id="clipPath446"><path
         d="m 14000,1068.99 -6386.01,261.3 0.11,0 6385.9,-261.3 0,0 m -3163.8,3741.08 -808.5,626.56 0,0 808.5,-626.56 0,0"
         id="path448"
         inkscape:connector-curvature="0" /></clipPath><linearGradient
       x1="0"
       y1="0"
       x2="1"
       y2="0"
       gradientUnits="userSpaceOnUse"
       gradientTransform="matrix(6364.72,-3946.12,-3946.12,-6364.72,8269.96,2762.97)"
       spreadMethod="pad"
       id="linearGradient450"><stop
         style="stop-opacity:1;stop-color:#f17f14"
         offset="0"
         id="stop452" /><stop
         style="stop-opacity:1;stop-color:#f1a510"
         offset="0.995349"
         id="stop454" /><stop
         style="stop-opacity:1;stop-color:#f1a510"
         offset="1"
         id="stop456" /></linearGradient><clipPath
       clipPathUnits="userSpaceOnUse"
       id="clipPath464"><path
         d="m 14000,2358.08 -230.5,178.67 0,0 230.5,-178.67 0,0 m -294.7,228.39 0,0 -286.6,222.14 0,0 286.6,-222.14 m -455.3,352.87 0,0 -575.9,446.34 c 0.1,-0.07 0.1,-0.12 0.2,-0.2 l 575.7,-446.14"
         id="path466"
         inkscape:connector-curvature="0" /></clipPath><clipPath
       clipPathUnits="userSpaceOnUse"
       id="clipPath476"><path
         d="m 13418.7,2808.61 0,0 -168.7,130.73 0,0 168.7,-130.73"
         id="path478"
         inkscape:connector-curvature="0" /></clipPath><clipPath
       clipPathUnits="userSpaceOnUse"
       id="clipPath488"><path
         d="m 13769.5,2536.75 -64.2,49.72 0,0 64.2,-49.72 0,0"
         id="path490"
         inkscape:connector-curvature="0" /></clipPath><clipPath
       clipPathUnits="userSpaceOnUse"
       id="clipPath500"><path
         d="m 12674.3,3385.48 c -0.1,0.08 -0.1,0.13 -0.2,0.2 l -245.1,189.92 0,0 245.3,-190.12"
         id="path502"
         inkscape:connector-curvature="0" /></clipPath><clipPath
       clipPathUnits="userSpaceOnUse"
       id="clipPath512"><path
         d="m 14000,1068.99 -6385.9,261.3 2177.81,0 c 134.3,0 243.29,112.42 243.29,251.22 l 0,3793.06 c 0,21.42 -2.6,42.2 -7.5,62.06 l 808.5,-626.56 0,-1234.47 38.5,0 c 0,0 318.1,-245.06 826,-636.26 l -952.2,0 0,-130.73 1121.9,0 c 91.4,-70.41 187.7,-144.62 288.3,-222.14 l -1410.2,0 0,-130.72 1579.9,0 c 93.1,-71.75 189.4,-145.91 288.4,-222.15 l -1868.3,0 0,-130.72 2037.9,0 C 13164,1811.98 13575.5,1495 14000,1167.96 l 0,-98.97"
         id="path514"
         inkscape:connector-curvature="0" /></clipPath><clipPath
       clipPathUnits="userSpaceOnUse"
       id="clipPath518"><path
         d="m 9734.4,1064 1080,0 0,4377.6 -1080,0 0,-4377.6 z"
         id="path520"
         inkscape:connector-curvature="0" /></clipPath><clipPath
       clipPathUnits="userSpaceOnUse"
       id="clipPath530"><path
         d="m 14000,1068.99 -6385.9,261.3 2177.81,0 c 134.3,0 243.29,112.42 243.29,251.22 l 0,3793.06 c 0,21.42 -2.6,42.2 -7.5,62.06 l 808.5,-626.56 0,-1234.47 38.5,0 c 0,0 318.1,-245.06 826,-636.26 l -952.2,0 0,-130.73 1121.9,0 c 91.4,-70.41 187.7,-144.62 288.3,-222.14 l -1410.2,0 0,-130.72 1579.9,0 c 93.1,-71.75 189.4,-145.91 288.4,-222.15 l -1868.3,0 0,-130.72 2037.9,0 C 13164,1811.98 13575.5,1495 14000,1167.96 l 0,-98.97"
         id="path532"
         inkscape:connector-curvature="0" /></clipPath><clipPath
       clipPathUnits="userSpaceOnUse"
       id="clipPath536"><path
         d="m 10800,1064 369.602,0 0,4041.6 -369.602,0 0,-4041.6 z"
         id="path538"
         inkscape:connector-curvature="0" /></clipPath><clipPath
       clipPathUnits="userSpaceOnUse"
       id="clipPath548"><path
         d="m 14000,1068.99 -6385.9,261.3 2177.81,0 c 134.3,0 243.29,112.42 243.29,251.22 l 0,3793.06 c 0,21.42 -2.6,42.2 -7.5,62.06 l 808.5,-626.56 0,-1234.47 38.5,0 c 0,0 318.1,-245.06 826,-636.26 l -952.2,0 0,-130.73 1121.9,0 c 91.4,-70.41 187.7,-144.62 288.3,-222.14 l -1410.2,0 0,-130.72 1579.9,0 c 93.1,-71.75 189.4,-145.91 288.4,-222.15 l -1868.3,0 0,-130.72 2037.9,0 C 13164,1811.98 13575.5,1495 14000,1167.96 l 0,-98.97"
         id="path550"
         inkscape:connector-curvature="0" /></clipPath><clipPath
       clipPathUnits="userSpaceOnUse"
       id="clipPath554"><path
         d="m 11155.2,1064 369.602,0 0,2361.6 -369.602,0 0,-2361.6 z"
         id="path556"
         inkscape:connector-curvature="0" /></clipPath><clipPath
       clipPathUnits="userSpaceOnUse"
       id="clipPath566"><path
         d="m 14000,1068.99 -6385.9,261.3 2177.81,0 c 134.3,0 243.29,112.42 243.29,251.22 l 0,3793.06 c 0,21.42 -2.6,42.2 -7.5,62.06 l 808.5,-626.56 0,-1234.47 38.5,0 c 0,0 318.1,-245.06 826,-636.26 l -952.2,0 0,-130.73 1121.9,0 c 91.4,-70.41 187.7,-144.62 288.3,-222.14 l -1410.2,0 0,-130.72 1579.9,0 c 93.1,-71.75 189.4,-145.91 288.4,-222.15 l -1868.3,0 0,-130.72 2037.9,0 C 13164,1811.98 13575.5,1495 14000,1167.96 l 0,-98.97"
         id="path568"
         inkscape:connector-curvature="0" /></clipPath><clipPath
       clipPathUnits="userSpaceOnUse"
       id="clipPath572"><path
         d="m 11510.4,1064 724.797,0 0,2030.4 -724.797,0 0,-2030.4 z"
         id="path574"
         inkscape:connector-curvature="0" /></clipPath><clipPath
       clipPathUnits="userSpaceOnUse"
       id="clipPath584"><path
         d="m 14000,1068.99 -6385.9,261.3 2177.81,0 c 134.3,0 243.29,112.42 243.29,251.22 l 0,3793.06 c 0,21.42 -2.6,42.2 -7.5,62.06 l 808.5,-626.56 0,-1234.47 38.5,0 c 0,0 318.1,-245.06 826,-636.26 l -952.2,0 0,-130.73 1121.9,0 c 91.4,-70.41 187.7,-144.62 288.3,-222.14 l -1410.2,0 0,-130.72 1579.9,0 c 93.1,-71.75 189.4,-145.91 288.4,-222.15 l -1868.3,0 0,-130.72 2037.9,0 C 13164,1811.98 13575.5,1495 14000,1167.96 l 0,-98.97"
         id="path586"
         inkscape:connector-curvature="0" /></clipPath><clipPath
       clipPathUnits="userSpaceOnUse"
       id="clipPath590"><path
         d="m 12220.8,1064 369.602,0 0,1694.4 -369.602,0 0,-1694.4 z"
         id="path592"
         inkscape:connector-curvature="0" /></clipPath><clipPath
       clipPathUnits="userSpaceOnUse"
       id="clipPath602"><path
         d="m 14000,1068.99 -6385.9,261.3 2177.81,0 c 134.3,0 243.29,112.42 243.29,251.22 l 0,3793.06 c 0,21.42 -2.6,42.2 -7.5,62.06 l 808.5,-626.56 0,-1234.47 38.5,0 c 0,0 318.1,-245.06 826,-636.26 l -952.2,0 0,-130.73 1121.9,0 c 91.4,-70.41 187.7,-144.62 288.3,-222.14 l -1410.2,0 0,-130.72 1579.9,0 c 93.1,-71.75 189.4,-145.91 288.4,-222.15 l -1868.3,0 0,-130.72 2037.9,0 C 13164,1811.98 13575.5,1495 14000,1167.96 l 0,-98.97"
         id="path604"
         inkscape:connector-curvature="0" /></clipPath><clipPath
       clipPathUnits="userSpaceOnUse"
       id="clipPath608"><path
         d="m 12576,1064 364.801,0 0,1358.4 -364.801,0 0,-1358.4 z"
         id="path610"
         inkscape:connector-curvature="0" /></clipPath><clipPath
       clipPathUnits="userSpaceOnUse"
       id="clipPath620"><path
         d="m 14000,1068.99 -6385.9,261.3 2177.81,0 c 134.3,0 243.29,112.42 243.29,251.22 l 0,3793.06 c 0,21.42 -2.6,42.2 -7.5,62.06 l 808.5,-626.56 0,-1234.47 38.5,0 c 0,0 318.1,-245.06 826,-636.26 l -952.2,0 0,-130.73 1121.9,0 c 91.4,-70.41 187.7,-144.62 288.3,-222.14 l -1410.2,0 0,-130.72 1579.9,0 c 93.1,-71.75 189.4,-145.91 288.4,-222.15 l -1868.3,0 0,-130.72 2037.9,0 C 13164,1811.98 13575.5,1495 14000,1167.96 l 0,-98.97"
         id="path622"
         inkscape:connector-curvature="0" /></clipPath><clipPath
       clipPathUnits="userSpaceOnUse"
       id="clipPath626"><path
         d="m 12926.4,1064 369.598,0 0,1022.4 -369.598,0 0,-1022.4 z"
         id="path628"
         inkscape:connector-curvature="0" /></clipPath><clipPath
       clipPathUnits="userSpaceOnUse"
       id="clipPath638"><path
         d="m 14000,1068.99 -6385.9,261.3 2177.81,0 c 134.3,0 243.29,112.42 243.29,251.22 l 0,3793.06 c 0,21.42 -2.6,42.2 -7.5,62.06 l 808.5,-626.56 0,-1234.47 38.5,0 c 0,0 318.1,-245.06 826,-636.26 l -952.2,0 0,-130.73 1121.9,0 c 91.4,-70.41 187.7,-144.62 288.3,-222.14 l -1410.2,0 0,-130.72 1579.9,0 c 93.1,-71.75 189.4,-145.91 288.4,-222.15 l -1868.3,0 0,-130.72 2037.9,0 C 13164,1811.98 13575.5,1495 14000,1167.96 l 0,-98.97"
         id="path640"
         inkscape:connector-curvature="0" /></clipPath><clipPath
       clipPathUnits="userSpaceOnUse"
       id="clipPath644"><path
         d="m 13281.6,1064 724.801,0 0,686.398 -724.801,0 0,-686.398 z"
         id="path646"
         inkscape:connector-curvature="0" /></clipPath><clipPath
       clipPathUnits="userSpaceOnUse"
       id="clipPath656"><path
         d="m 14000,1068.99 -6385.9,261.3 2177.81,0 c 134.3,0 243.29,112.42 243.29,251.22 l 0,3793.06 c 0,21.42 -2.6,42.2 -7.5,62.06 l 808.5,-626.56 0,-1234.47 38.5,0 c 0,0 318.1,-245.06 826,-636.26 l -952.2,0 0,-130.73 1121.9,0 c 91.4,-70.41 187.7,-144.62 288.3,-222.14 l -1410.2,0 0,-130.72 1579.9,0 c 93.1,-71.75 189.4,-145.91 288.4,-222.15 l -1868.3,0 0,-130.72 2037.9,0 C 13164,1811.98 13575.5,1495 14000,1167.96 l 0,-98.97"
         id="path658"
         inkscape:connector-curvature="0" /></clipPath><clipPath
       clipPathUnits="userSpaceOnUse"
       id="clipPath662"><path
         d="m 7608,1064 2140.8,0 0,350.402 -2140.8,0 0,-350.402 z"
         id="path664"
         inkscape:connector-curvature="0" /></clipPath><clipPath
       clipPathUnits="userSpaceOnUse"
       id="clipPath674"><path
         d="m 11870.4,2808.61 -1121.9,0 0,130.73 952.2,0 c 54.4,-41.93 111,-85.56 169.7,-130.73"
         id="path676"
         inkscape:connector-curvature="0" /></clipPath><clipPath
       clipPathUnits="userSpaceOnUse"
       id="clipPath686"><path
         d="m 12328.4,2455.75 -1579.9,0 0,130.72 1410.2,0 c 55.3,-42.62 111.9,-86.17 169.7,-130.72"
         id="path688"
         inkscape:connector-curvature="0" /></clipPath><clipPath
       clipPathUnits="userSpaceOnUse"
       id="clipPath698"><path
         d="m 12786.4,2102.88 -2037.9,0 0,130.72 1868.3,0 c 55.6,-42.9 112.3,-86.56 169.6,-130.72"
         id="path700"
         inkscape:connector-curvature="0" /></clipPath><clipPath
       clipPathUnits="userSpaceOnUse"
       id="clipPath710"><path
         d="m 14000,1167.96 c -424.5,327.04 -836,644.02 -1213.6,934.92 l 0,0 C 13164,1811.98 13575.5,1495 14000,1167.97 l 0,-0.01 m -1383.2,1065.64 0,0 c -99,76.24 -195.3,150.4 -288.4,222.15 l 0,0 c 93.1,-71.75 189.4,-145.91 288.4,-222.15 m -458.1,352.87 0,0 c -100.6,77.52 -196.9,151.73 -288.3,222.14 l 0,0 c 91.4,-70.41 187.7,-144.62 288.3,-222.14 m -458,352.87 0,0 c -507.9,391.2 -826,636.26 -826,636.26 l 0,0 c 1.7,-1.24 319.4,-246.06 826,-636.26"
         id="path712"
         inkscape:connector-curvature="0" /></clipPath><clipPath
       clipPathUnits="userSpaceOnUse"
       id="clipPath722"><path
         d="m 11870.4,2808.61 0,0 c -58.7,45.17 -115.3,88.8 -169.7,130.73 l 0,0 c 54.4,-41.93 111,-85.56 169.7,-130.73"
         id="path724"
         inkscape:connector-curvature="0" /></clipPath><clipPath
       clipPathUnits="userSpaceOnUse"
       id="clipPath734"><path
         d="m 12328.4,2455.75 0,0 c -57.8,44.55 -114.4,88.1 -169.7,130.72 l 0,0 c 55.3,-42.62 111.9,-86.17 169.7,-130.72"
         id="path736"
         inkscape:connector-curvature="0" /></clipPath><clipPath
       clipPathUnits="userSpaceOnUse"
       id="clipPath746"><path
         d="m 12786.4,2102.88 0,0 c -57.3,44.16 -114,87.82 -169.6,130.72 l 0,0 c 55.6,-42.9 112.3,-86.56 169.6,-130.72"
         id="path748"
         inkscape:connector-curvature="0" /></clipPath><clipPath
       clipPathUnits="userSpaceOnUse"
       id="clipPath758"><path
         d="m 14000,1167.97 c -424.5,327.03 -836,644.01 -1213.6,934.91 l 617,0 0,130.72 -786.6,0 c -99,76.24 -195.3,150.4 -288.4,222.15 l 1441.1,0 0,81 230.5,-178.67 0,-1190.11 m -294.7,1418.5 -1546.6,0 c -100.6,77.52 -196.9,151.73 -288.3,222.14 l 1548.3,0 286.6,-222.14 m -455.3,352.87 -1549.3,0 c -506.6,390.2 -824.3,635.02 -826,636.26 l 1552.8,0 c 79.4,-61.15 161.6,-124.43 246.6,-189.92 l 575.9,-446.34"
         id="path760"
         inkscape:connector-curvature="0" /></clipPath><clipPath
       clipPathUnits="userSpaceOnUse"
       id="clipPath770"><path
         d="m 13418.7,2808.61 -1548.3,0 c -58.7,45.17 -115.3,88.8 -169.7,130.73 l 1549.3,0 168.7,-130.73"
         id="path772"
         inkscape:connector-curvature="0" /></clipPath><clipPath
       clipPathUnits="userSpaceOnUse"
       id="clipPath782"><path
         d="m 13769.5,2455.75 -1441.1,0 c -57.8,44.55 -114.4,88.1 -169.7,130.72 l 1546.6,0 64.2,-49.72 0,-81"
         id="path784"
         inkscape:connector-curvature="0" /></clipPath><clipPath
       clipPathUnits="userSpaceOnUse"
       id="clipPath794"><path
         d="m 13403.4,2102.88 -617,0 c -57.3,44.16 -114,87.82 -169.6,130.72 l 786.6,0 0,-130.72"
         id="path796"
         inkscape:connector-curvature="0" /></clipPath><clipPath
       clipPathUnits="userSpaceOnUse"
       id="clipPath806"><path
         d="m 12674.1,3385.68 c -85,65.49 -167.2,128.77 -246.6,189.92 l 1.5,0 245.1,-189.92"
         id="path808"
         inkscape:connector-curvature="0" /></clipPath><clipPath
       clipPathUnits="userSpaceOnUse"
       id="clipPath976"><path
         d="m 7618.36,6662.38 0,463.6 2347.5,0 0,-461.5 -2347.5,-2.1"
         id="path978"
         inkscape:connector-curvature="0" /></clipPath></defs><sodipodi:namedview
     pagecolor="#ffffff"
     bordercolor="#666666"
     borderopacity="1"
     objecttolerance="10"
     gridtolerance="10"
     guidetolerance="10"
     inkscape:pageopacity="0"
     inkscape:pageshadow="2"
     inkscape:window-width="1360"
     inkscape:window-height="705"
     id="namedview4"
     showgrid="false"
     showguides="true"
     inkscape:guide-bbox="true"
     inkscape:zoom="0.35355339"
     inkscape:cx="1211.5621"
     inkscape:cy="359.44203"
     inkscape:window-x="0"
     inkscape:window-y="26"
     inkscape:window-maximized="1"
     inkscape:current-layer="g10" /><g
     id="g10"
     inkscape:groupmode="layer"
     inkscape:label="ink_ext_XXXXXX"
     transform="matrix(1.25,0,0,-1.25,0,1225)"><g
       id="g34"
       transform="matrix(0.13781405,0,0,0.12952536,-165.83688,-10.245533)"
       inkscape:export-filename="/home/victor/Descargas/startbootstrap-new-age-gh-pages/img/demo-screen-1.jpg"
       inkscape:export-xdpi="51.699326"
       inkscape:export-ydpi="51.699326"><g
         clip-path="url(#clipPath38)"
         id="g36"><path
           inkscape:connector-curvature="0"
           id="path50"
           style="fill:url(#linearGradient42);fill-opacity:1;fill-rule:nonzero;stroke:none"
           d="m 6205.52,5626.05 0,0 0,212.23 -1035.31,821.91 0,0 1035.31,-821.91 0,-212.23" /></g></g><g
       id="g64"
       transform="scale(0.1,0.1)"
       inkscape:export-filename="/home/victor/Descargas/startbootstrap-new-age-gh-pages/img/demo-screen-1.jpg"
       inkscape:export-xdpi="51.699326"
       inkscape:export-ydpi="51.699326"><g
         clip-path="url(#clipPath68)"
         id="g66"><path
           inkscape:connector-curvature="0"
           id="path80"
           style="fill:url(#linearGradient72);fill-opacity:1;fill-rule:nonzero;stroke:none"
           d="m 78,794.063 0,0 L 7136.02,894.652 77.9961,794.051" /></g></g><g
       id="g670"
       transform="scale(0.1,0.1)"
       inkscape:export-filename="/home/victor/plantilla/1/images/mac.png"
       inkscape:export-xdpi="34.745026"
       inkscape:export-ydpi="34.745026" /><g
       id="g694"
       transform="scale(0.1,0.1)"
       inkscape:export-filename="/home/victor/plantilla/1/images/mac.png"
       inkscape:export-xdpi="34.745026"
       inkscape:export-ydpi="34.745026" /><text
       xml:space="preserve"
       style="font-style:normal;font-weight:normal;font-size:77.08234406px;line-height:125%;font-family:sans-serif;letter-spacing:0px;word-spacing:0px;fill:#000000;fill-opacity:1;stroke:none;stroke-width:1px;stroke-linecap:butt;stroke-linejoin:miter;stroke-opacity:1;"
       x="583.56122"
       y="-281.44348"
       id="text4763-3"
       sodipodi:linespacing="125%"
       inkscape:export-filename="/home/victor/plantilla/2/img/logo.jpg"
       inkscape:export-xdpi="34.340664"
       inkscape:export-ydpi="34.340664"
       transform="scale(1,-1)"><tspan
         sodipodi:role="line"
         id="tspan4765-2"
         x="583.56122"
         y="-281.44348"
         style="font-style:normal;font-variant:normal;font-weight:normal;font-stretch:normal;font-family:'Mexcellent 3D';-inkscape-font-specification:'Mexcellent 3D';fill:#000000;">the.code.run</tspan></text>
</g></svg>